<svg width="282" height="50" viewBox="0 0 282 50" fill="none" xmlns="http://www.w3.org/2000/svg">
<rect width="282" height="50" fill="black"/>
<path d="M12.6562 40.8906C12.5312 40.7812 12.4531 40.6562 12.4062 40.5156C12.3125 40.2969 12.1562 39.2031 11.9219 37.2031C11.6719 35.2031 11.5625 34.0156 11.5625 33.625C11.5625 33.4844 11.6094 33.3594 11.7031 33.25C11.7969 33.1562 11.9219 33.0938 12.0781 33.0938C12.3594 33.0938 12.5469 33.3125 12.6406 33.75C12.7344 34.1875 12.8281 34.8438 12.8906 35.7031C12.9219 36.2344 12.9531 36.6719 13 36.9844C13.0469 37.2969 13.125 37.5156 13.2188 37.6406C13.2812 37.625 13.3438 37.5156 13.375 37.3281C13.4062 37.1406 13.4531 36.8594 13.5 36.4844C13.5781 35.75 13.6875 35.1719 13.8125 34.75C13.9375 34.3438 14.1562 34.125 14.5 34.125C14.8281 34.125 15.0781 34.3125 15.2344 34.6562C15.3906 35 15.5312 35.5156 15.6719 36.1875C15.7656 36.6562 15.8594 37 15.9219 37.2188C15.9844 37.4375 16.0625 37.625 16.1875 37.75C16.2812 37.7188 16.375 37.4688 16.4688 37C16.5469 36.5312 16.6406 35.8281 16.7656 34.8906C16.8594 34.0469 16.9219 33.5469 16.9844 33.375C17.0625 33.1562 17.1875 33.0469 17.3438 33.0469C17.4531 33.0469 17.5469 33.1094 17.6094 33.2031C17.6719 33.2969 17.7188 33.4062 17.7188 33.5312C17.7188 33.7031 17.7031 33.8594 17.6719 34.0156C17.6562 34.0781 17.6406 34.1562 17.6406 34.25C17.625 34.3438 17.625 34.4375 17.625 34.5C17.625 34.7656 17.6094 35.1562 17.5938 35.6719C17.5625 36.2188 17.5625 36.6094 17.5625 36.8594V37.6719C17.5625 39.6719 17.3906 40.7344 17.0625 40.8906C16.9688 40.9375 16.875 40.9531 16.7812 40.9531C16.5 40.9531 16.2344 40.75 15.9688 40.3125C15.6875 39.8906 15.375 39.2969 15.0156 38.5156C14.8594 38.1875 14.75 37.9375 14.6562 37.7656C14.5625 37.6094 14.5 37.5156 14.4531 37.5156C14.3906 37.5156 14.3438 37.5312 14.3281 37.5469C14.3125 37.5781 14.2969 37.6094 14.2812 37.6719C14.2031 37.9375 14.1406 38.3281 14.0781 38.8438C14.0625 38.9062 14.0312 39.0938 14 39.3906C13.9688 39.6875 13.9062 39.9531 13.8125 40.2031C13.75 40.3906 13.6406 40.5781 13.4844 40.7656C13.3281 40.9531 13.1875 41.0469 13.0312 41.0469C12.8906 41.0469 12.7656 41 12.6562 40.8906ZM20.6562 40.7656C20.5 40.9219 20.3281 40.9844 20.125 40.9844C19.7656 40.9844 19.5938 40.4062 19.5938 39.2188L19.6094 38.3906V36.6719C19.6094 36.5469 19.6875 36.4062 19.8438 36.2344C20 36.0625 20.1406 35.9688 20.2656 35.9688C20.375 35.9688 20.4531 36 20.5156 36.0312C20.5781 36.0938 20.6562 36.7031 20.75 37.875C20.8281 39.0625 20.875 39.8438 20.875 40.2344C20.875 40.4375 20.7969 40.6094 20.6562 40.7656ZM19.3906 34.0781C19.5156 33.9531 19.6562 33.8906 19.7812 33.8906C19.9531 33.8906 20.1719 33.9688 20.4219 34.1094C20.6719 34.2656 20.7969 34.4219 20.7969 34.5781C20.7969 34.7969 20.7031 34.9219 20.5312 34.9688C20.3438 35.0312 20.125 35.0469 19.8594 35.0469C19.7031 35.0469 19.5469 34.9844 19.4062 34.8594C19.2656 34.7344 19.2031 34.5938 19.2031 34.4375C19.2031 34.3125 19.2656 34.2031 19.3906 34.0781ZM22.7031 40.5156C22.3281 40.1406 22.1406 39.6719 22.1406 39.0938C22.1406 38.9375 22.1875 38.7031 22.3125 38.3906C22.5 37.8594 22.7812 37.4531 23.1875 37.1719C23.5781 36.8906 24.0625 36.7344 24.625 36.7344C24.6719 36.7344 24.75 36.7656 24.8438 36.7969C24.9375 36.8281 25 36.8438 25.0625 36.8438C25.2344 36.8438 25.3438 36.6875 25.4062 36.3438C25.4688 36.0156 25.5156 35.5 25.5469 34.8125C25.5781 34.0312 25.6406 33.4375 25.7344 33.0312C25.8125 32.625 25.9688 32.4062 26.2188 32.4062C26.4375 32.4062 26.5781 32.5156 26.6719 32.7031C26.7656 32.9062 26.8125 33.125 26.8125 33.3594C26.8125 33.8594 26.7812 34.375 26.75 34.9375C26.7031 35.5 26.6719 35.8438 26.6719 35.9844C26.6094 36.7969 26.5625 37.4062 26.5469 37.8125C26.6406 37.9062 26.7188 37.9688 26.7969 38.0156C26.9062 38.1094 26.9844 38.1875 27.0156 38.2656C27.0469 38.3438 27.0781 38.4844 27.0781 38.6875C27.0781 39.1562 26.8906 39.6094 26.5469 40.0469C26.2031 40.4844 25.7969 40.7656 25.3438 40.8906C24.8906 41.0156 24.4844 41.0781 24.125 41.0781C23.5469 41.0781 23.0781 40.8906 22.7031 40.5156ZM23.5625 39.6562C23.6562 39.7969 23.7969 39.8594 23.9844 39.8594C24.1406 39.8594 24.3438 39.8125 24.6094 39.7188C24.875 39.625 25.1094 39.5156 25.3125 39.3594C25.5156 39.2031 25.625 39.0469 25.625 38.875C25.625 38.625 25.5312 38.4062 25.3594 38.2188C25.1875 38.0312 24.9688 37.9375 24.7188 37.9375C24.4062 37.9375 24.1094 38.0625 23.8438 38.3125C23.5625 38.5625 23.4375 38.8438 23.4375 39.1406C23.4375 39.3438 23.4688 39.5156 23.5625 39.6562ZM29.1719 40.8438C28.9844 40.7344 28.8438 40.6094 28.7344 40.4844C28.4844 40.2188 28.3281 39.9219 28.2656 39.5938C28.1875 39.2656 28.1562 38.8594 28.1562 38.3906C28.1562 37.9844 28.25 37.5625 28.4688 37.1094C28.6875 36.6719 28.9688 36.2969 29.3281 36C29.6875 35.7031 30.0781 35.5469 30.5 35.5469C30.875 35.5469 31.1719 35.6562 31.375 35.875C31.5625 36.0938 31.6719 36.4062 31.6719 36.7812C31.6719 37.3438 31.4531 37.8281 31.0156 38.2188C30.5781 38.6094 30.0469 38.9219 29.4219 39.1719C29.4375 39.4531 29.4844 39.6562 29.5625 39.7812C29.625 39.9062 29.7969 39.9531 30.0469 39.9531C30.2031 39.9531 30.4219 39.9062 30.6719 39.7812C30.9375 39.6875 31.1406 39.625 31.2969 39.625C31.375 39.625 31.4531 39.7031 31.5469 39.8281C31.6406 39.9531 31.6875 40.0625 31.6875 40.1406C31.6875 40.3281 31.5625 40.5 31.3125 40.625C31.0625 40.75 30.7656 40.8438 30.4531 40.9062C30.1406 40.9688 29.875 41 29.6875 41C29.5312 41 29.3594 40.9531 29.1719 40.8438ZM29.3125 38.0781L29.4219 38.125C29.5469 38.125 29.7188 38.0625 29.9062 37.9062C30.0938 37.7656 30.25 37.5938 30.3906 37.4062C30.5156 37.2188 30.5938 37.0469 30.5938 36.9062C30.5938 36.8438 30.5781 36.7812 30.5469 36.7188C30.5156 36.6562 30.4688 36.625 30.4062 36.625C30.2656 36.625 30.1094 36.7188 29.9375 36.875C29.75 37.0312 29.5938 37.2188 29.4688 37.4375C29.3438 37.6562 29.2812 37.8281 29.2812 37.9531L29.3125 38.0781ZM38.7188 40.9062C38.3438 40.9062 38.0469 40.8594 37.8594 40.75C37.6562 40.6406 37.5625 40.4062 37.5625 40.0312C37.5625 39.8125 37.5781 39.5781 37.6094 39.3438C37.7031 38.5625 37.8125 37.3906 37.9375 35.7969C37.9531 35.5156 37.9688 35.2969 38 35.1719C38 35.0781 38.0156 34.8906 38.0469 34.6406C38.0625 34.3906 38.0781 34.1562 38.0781 33.9375C38.0781 33.875 38.0625 33.8125 38.0625 33.7188C38.0469 33.625 38.0469 33.5312 38.0469 33.4062C38.0469 32.9688 38.1875 32.7344 38.4688 32.7344C38.5781 32.7344 38.7031 32.7656 38.8438 32.8125C38.875 32.8281 38.9219 32.8438 39 32.8594C39.0781 32.8906 39.1562 32.8906 39.2188 32.8906C39.4062 32.8906 39.6875 32.8594 40.0938 32.7656C40.1406 32.7656 40.25 32.7344 40.4375 32.7031C40.625 32.6719 40.7969 32.6562 40.9531 32.6562C41.1719 32.6562 41.3438 32.6875 41.5 32.75C41.6406 32.8125 41.7188 32.9219 41.7188 33.1094C41.7188 33.3594 41.5469 33.5312 41.2188 33.625C40.875 33.7188 40.4219 33.7812 39.8438 33.8438C39.7969 33.8438 39.7031 33.8594 39.5625 33.875C39.4219 33.8906 39.3125 33.9062 39.25 33.9219C39.1719 33.9375 39.125 33.9531 39.125 33.9688C39.0781 34.0469 39.0625 34.1562 39.0625 34.2969V35.1094C39.0625 35.6094 39.0781 35.9062 39.125 35.9844L39.2031 36C39.3594 36 39.5469 35.9844 39.75 35.9531C39.9375 35.9219 40.0781 35.9062 40.1406 35.8906C40.4844 35.8281 40.7812 35.7812 41.0625 35.7812C41.2031 35.7812 41.3438 35.8281 41.4844 35.9219C41.625 36.0156 41.7031 36.1406 41.7031 36.2812C41.7031 36.5781 41.5625 36.7656 41.2812 36.8594C41 36.9531 40.625 37 40.125 37.0156C39.8438 37.0312 39.6406 37.0469 39.4844 37.0625C39.3281 37.0938 39.2188 37.125 39.1406 37.1719C39.0156 37.25 38.9688 37.875 38.9688 39.0625L38.9531 39.4219C38.9531 39.5625 38.9688 39.6719 39.0312 39.7344C39.0938 39.7969 39.2031 39.8281 39.375 39.8281C39.8438 39.8281 40.2812 39.7812 40.6875 39.6719C40.9375 39.6094 41.1094 39.5781 41.2344 39.5781C41.4062 39.5781 41.5781 39.6406 41.75 39.7344C41.9062 39.8281 42 39.9688 42 40.125C42 40.4531 41.6875 40.6719 41.0625 40.7656C40.4375 40.8594 39.8125 40.9062 39.2188 40.9062H38.7188ZM43.5781 45.3594C43.4531 45.2656 43.4062 45.1562 43.4062 45.0312C43.4062 44.9375 43.4531 44.8281 43.5625 44.7031C43.6562 44.5781 43.7188 44.5 43.75 44.4688C44.25 43.8594 44.6094 43.2344 44.8281 42.5781C45.0312 41.9375 45.1406 41.1875 45.1406 40.3281C45.1406 39.875 45.0938 39.6406 45.0312 39.6406C44.9375 39.6406 44.875 39.6562 44.8125 39.6562C44.75 39.6719 44.7031 39.6875 44.6719 39.6875C44.5156 39.7344 44.4062 39.75 44.3125 39.75C43.9219 39.75 43.625 39.6094 43.4219 39.2969C43.2031 39 43.1094 38.6562 43.1094 38.25C43.1094 37.8594 43.2031 37.4688 43.4062 37.0625C43.6094 36.6562 43.8906 36.3281 44.2344 36.0625C44.5781 35.8125 44.9531 35.6719 45.3594 35.6719C45.6406 35.6719 45.8594 35.7656 46.0156 35.9219C46.1719 36.0938 46.25 36.3125 46.25 36.5938C46.25 36.6406 46.2812 36.7031 46.3594 36.7812C46.4219 36.8594 46.4844 36.9375 46.5312 37.0156C46.5781 37.1094 46.6094 37.2188 46.6094 37.3594C46.6094 37.5156 46.5781 37.6719 46.5312 37.8594C46.4375 38.2344 46.3906 38.6562 46.3906 39.1406C46.3906 39.4219 46.3594 39.8281 46.2969 40.3594L46.2344 41.0312C46.1719 41.7188 45.9688 42.5312 45.6094 43.4688C45.5156 43.6875 45.375 43.9531 45.1875 44.2656C44.9844 44.5938 44.7656 44.875 44.5469 45.125C44.3125 45.375 44.1094 45.5 43.9219 45.5C43.7969 45.5 43.6875 45.4531 43.5781 45.3594ZM44.3281 38.3125C44.3438 38.3594 44.375 38.375 44.4062 38.375C44.5 38.375 44.625 38.2969 44.7812 38.125C44.9375 37.9531 45.0938 37.75 45.2188 37.5312C45.3438 37.3125 45.4062 37.1562 45.4062 37.0625C45.4062 36.8906 45.3594 36.7969 45.2656 36.7969C45.125 36.7969 44.9844 36.8906 44.8281 37.0625C44.6719 37.25 44.5469 37.4531 44.4531 37.6719C44.3438 37.9062 44.2969 38.0781 44.2969 38.2031C44.2969 38.2344 44.2969 38.2812 44.3281 38.3125ZM48.1875 45.3594C48.0625 45.2656 48.0156 45.1562 48.0156 45.0312C48.0156 44.9375 48.0625 44.8281 48.1719 44.7031C48.2656 44.5781 48.3281 44.5 48.3594 44.4688C48.8594 43.8594 49.2188 43.2344 49.4375 42.5781C49.6406 41.9375 49.75 41.1875 49.75 40.3281C49.75 39.875 49.7031 39.6406 49.6406 39.6406C49.5469 39.6406 49.4844 39.6562 49.4219 39.6562C49.3594 39.6719 49.3125 39.6875 49.2812 39.6875C49.125 39.7344 49.0156 39.75 48.9219 39.75C48.5312 39.75 48.2344 39.6094 48.0312 39.2969C47.8125 39 47.7188 38.6562 47.7188 38.25C47.7188 37.8594 47.8125 37.4688 48.0156 37.0625C48.2188 36.6562 48.5 36.3281 48.8438 36.0625C49.1875 35.8125 49.5625 35.6719 49.9688 35.6719C50.25 35.6719 50.4688 35.7656 50.625 35.9219C50.7812 36.0938 50.8594 36.3125 50.8594 36.5938C50.8594 36.6406 50.8906 36.7031 50.9688 36.7812C51.0312 36.8594 51.0938 36.9375 51.1406 37.0156C51.1875 37.1094 51.2188 37.2188 51.2188 37.3594C51.2188 37.5156 51.1875 37.6719 51.1406 37.8594C51.0469 38.2344 51 38.6562 51 39.1406C51 39.4219 50.9688 39.8281 50.9062 40.3594L50.8438 41.0312C50.7812 41.7188 50.5781 42.5312 50.2188 43.4688C50.125 43.6875 49.9844 43.9531 49.7969 44.2656C49.5938 44.5938 49.375 44.875 49.1562 45.125C48.9219 45.375 48.7188 45.5 48.5312 45.5C48.4062 45.5 48.2969 45.4531 48.1875 45.3594ZM48.9375 38.3125C48.9531 38.3594 48.9844 38.375 49.0156 38.375C49.1094 38.375 49.2344 38.2969 49.3906 38.125C49.5469 37.9531 49.7031 37.75 49.8281 37.5312C49.9531 37.3125 50.0156 37.1562 50.0156 37.0625C50.0156 36.8906 49.9688 36.7969 49.875 36.7969C49.7344 36.7969 49.5938 36.8906 49.4375 37.0625C49.2812 37.25 49.1562 37.4531 49.0625 37.6719C48.9531 37.9062 48.9062 38.0781 48.9062 38.2031C48.9062 38.2344 48.9062 38.2812 48.9375 38.3125ZM53.6094 40.7969C53.4688 40.6562 53.4062 40.4844 53.4062 40.2656C53.4062 39.2188 53.3125 38.3438 53.1562 37.625C53.125 37.4844 53.0625 37.3125 52.9844 37.1094C52.9531 37.0625 52.9219 36.9531 52.8594 36.7812C52.7969 36.6094 52.7812 36.4688 52.7812 36.3594C52.7812 36.1719 52.8438 35.9844 53 35.8281C53.1406 35.6719 53.3125 35.5938 53.5 35.5938C53.625 35.5938 53.7344 35.6562 53.8281 35.7812C53.9062 35.9062 53.9844 36.0625 54.0625 36.25C54.0938 36.3438 54.125 36.4375 54.1719 36.5C54.2031 36.5625 54.25 36.5938 54.2969 36.5938C54.3281 36.5938 54.4531 36.5312 54.6562 36.375C54.875 36.2188 55.0781 36.0781 55.25 35.9844C55.4219 35.8906 55.5938 35.8281 55.7656 35.8281C55.9531 35.8281 56.125 35.875 56.25 35.9688C56.375 36.0625 56.4531 36.1875 56.4531 36.375C56.4531 36.6094 56.3906 36.7812 56.2812 36.875C56.1562 36.9844 55.9844 37.0938 55.7344 37.1875C55.4062 37.3125 55.1562 37.4688 54.9844 37.6562C54.8125 37.8438 54.7344 38.1406 54.7344 38.5625C54.7344 38.7188 54.7656 38.9688 54.8281 39.2969C54.875 39.6875 54.9062 39.9375 54.9062 40.0312C54.9062 40.2656 54.8281 40.4844 54.6875 40.6875C54.5312 40.9062 54.3594 41 54.1406 41C53.9219 41 53.75 40.9375 53.6094 40.7969ZM58.375 40.8438C58.1875 40.7344 58.0469 40.6094 57.9375 40.4844C57.6875 40.2188 57.5312 39.9219 57.4688 39.5938C57.3906 39.2656 57.3594 38.8594 57.3594 38.3906C57.3594 37.9844 57.4531 37.5625 57.6719 37.1094C57.8906 36.6719 58.1719 36.2969 58.5312 36C58.8906 35.7031 59.2812 35.5469 59.7031 35.5469C60.0781 35.5469 60.375 35.6562 60.5781 35.875C60.7656 36.0938 60.875 36.4062 60.875 36.7812C60.875 37.3438 60.6562 37.8281 60.2188 38.2188C59.7812 38.6094 59.25 38.9219 58.625 39.1719C58.6406 39.4531 58.6875 39.6562 58.7656 39.7812C58.8281 39.9062 59 39.9531 59.25 39.9531C59.4062 39.9531 59.625 39.9062 59.875 39.7812C60.1406 39.6875 60.3438 39.625 60.5 39.625C60.5781 39.625 60.6562 39.7031 60.75 39.8281C60.8438 39.9531 60.8906 40.0625 60.8906 40.1406C60.8906 40.3281 60.7656 40.5 60.5156 40.625C60.2656 40.75 59.9688 40.8438 59.6562 40.9062C59.3438 40.9688 59.0781 41 58.8906 41C58.7344 41 58.5625 40.9531 58.375 40.8438ZM58.5156 38.0781L58.625 38.125C58.75 38.125 58.9219 38.0625 59.1094 37.9062C59.2969 37.7656 59.4531 37.5938 59.5938 37.4062C59.7188 37.2188 59.7969 37.0469 59.7969 36.9062C59.7969 36.8438 59.7812 36.7812 59.75 36.7188C59.7188 36.6562 59.6719 36.625 59.6094 36.625C59.4688 36.625 59.3125 36.7188 59.1406 36.875C58.9531 37.0312 58.7969 37.2188 58.6719 37.4375C58.5469 37.6562 58.4844 37.8281 58.4844 37.9531L58.5156 38.0781ZM62.2969 40.5156C62.0156 40.3281 61.875 40 61.875 39.5312C61.875 39.1562 62.0312 38.6875 62.3594 38.125C62.6719 37.5625 63.0625 37.0781 63.5156 36.6562C63.9688 36.2344 64.3906 36.0156 64.7812 36.0156C65.25 36.0156 65.5625 36.125 65.7344 36.3438C65.9062 36.5625 66 36.9062 66 37.375L65.9844 37.9062C65.9844 38.375 66.0625 38.7031 66.2188 38.9062C66.2812 39 66.3594 39.0625 66.4531 39.1094C66.5469 39.1562 66.6875 39.2031 66.875 39.25C67.125 39.3281 67.3125 39.4062 67.4375 39.4844C67.5625 39.5781 67.625 39.7188 67.625 39.9062C67.625 40.1406 67.5312 40.3281 67.3438 40.4531C67.1562 40.5781 66.9531 40.6406 66.7188 40.6406C66.4688 40.6406 66.2344 40.5938 66.0469 40.4844C65.8438 40.3906 65.6562 40.25 65.4844 40.0938C65.3281 39.9844 65.2344 39.9219 65.2031 39.9219C65.1094 39.9219 64.9688 40.0156 64.7969 40.1875C64.5781 40.375 64.3594 40.5312 64.1562 40.6406C63.9531 40.75 63.7188 40.7969 63.4531 40.7969C62.9531 40.7969 62.5781 40.7031 62.2969 40.5156ZM63.2969 39.3594C63.3906 39.4531 63.4688 39.4844 63.5469 39.4844C63.7344 39.4844 63.9375 39.375 64.1562 39.1406C64.3594 38.9219 64.5312 38.6406 64.6719 38.3281C64.8125 38.0156 64.8906 37.7656 64.8906 37.5781C64.8906 37.5 64.8438 37.375 64.7812 37.2188C64.7188 37.0625 64.6406 36.9844 64.5781 36.9844C64.4688 36.9844 64.2969 37.1406 64.0781 37.4375C63.8438 37.7344 63.625 38.0625 63.4375 38.4062C63.25 38.75 63.1562 38.9844 63.1562 39.1094C63.1562 39.1875 63.2031 39.2656 63.2969 39.3594ZM73.1875 41.5312C73.125 41.3906 73.0938 41.2344 73.0938 41.0625C73.0938 40.7344 73.1406 40.3281 73.2344 39.8594C73.2656 39.6719 73.2969 39.4062 73.3438 39.0781L73.4844 37.8906C73.5 37.7656 73.5156 37.5938 73.5469 37.4062C73.5781 37.2188 73.5938 36.9844 73.625 36.7188C73.625 36.6094 73.6406 36.4688 73.6562 36.2969C73.6562 36.125 73.6719 35.9844 73.6719 35.8906C73.6719 35.5156 73.6875 35.1875 73.7188 34.9375C73.75 34.6875 73.7969 34.4375 73.875 34.2031C73.9219 34.0469 73.9844 33.9375 74.0625 33.8594C74.125 33.7812 74.2344 33.7344 74.3906 33.7344C74.9219 33.7344 75.4375 34.2031 75.9062 35.125C76.375 36.0625 76.7344 36.9531 76.9844 37.8281C76.9844 37.8438 77.0156 37.9688 77.0781 38.2031C77.1406 38.4531 77.2188 38.5625 77.2812 38.5625H77.2969C77.5156 37.6094 77.625 36.6406 77.625 35.6562C77.625 35.4531 77.5938 35.1406 77.5625 34.7188C77.5156 34.3125 77.5 34 77.5 33.7812C77.5 33.5469 77.5625 33.3594 77.6875 33.2344C77.8125 33.1094 78 33.0469 78.2344 33.0469C78.5156 33.0469 78.7031 33.1875 78.7969 33.4531C78.875 33.7188 78.9219 34.0469 78.9219 34.4219C78.9219 36.2188 78.7188 38.125 78.3125 40.1562C78.2031 40.7344 77.9844 41.0156 77.6562 41.0156C77.2344 41.0156 76.8594 40.6875 76.5312 40.0156C76.1875 39.3438 75.8438 38.4531 75.5 37.3594C75.3438 36.8906 75.2188 36.5469 75.1406 36.3281C75.0469 36.1094 74.9844 36 74.9219 36C74.8438 36 74.8125 36.2188 74.8125 36.625C74.7812 37.4219 74.75 38.0469 74.7188 38.5156C74.6875 38.9844 74.6094 39.4531 74.4844 39.9062C74.3438 40.375 74.1875 40.7969 74.0312 41.1719C73.875 41.5625 73.6875 41.75 73.5 41.75C73.3438 41.75 73.25 41.6875 73.1875 41.5312ZM81.1406 40.8438C80.9531 40.7344 80.8125 40.6094 80.7031 40.4844C80.4531 40.2188 80.2969 39.9219 80.2344 39.5938C80.1562 39.2656 80.125 38.8594 80.125 38.3906C80.125 37.9844 80.2188 37.5625 80.4375 37.1094C80.6562 36.6719 80.9375 36.2969 81.2969 36C81.6562 35.7031 82.0469 35.5469 82.4688 35.5469C82.8438 35.5469 83.1406 35.6562 83.3438 35.875C83.5312 36.0938 83.6406 36.4062 83.6406 36.7812C83.6406 37.3438 83.4219 37.8281 82.9844 38.2188C82.5469 38.6094 82.0156 38.9219 81.3906 39.1719C81.4062 39.4531 81.4531 39.6562 81.5312 39.7812C81.5938 39.9062 81.7656 39.9531 82.0156 39.9531C82.1719 39.9531 82.3906 39.9062 82.6406 39.7812C82.9062 39.6875 83.1094 39.625 83.2656 39.625C83.3438 39.625 83.4219 39.7031 83.5156 39.8281C83.6094 39.9531 83.6562 40.0625 83.6562 40.1406C83.6562 40.3281 83.5312 40.5 83.2812 40.625C83.0312 40.75 82.7344 40.8438 82.4219 40.9062C82.1094 40.9688 81.8438 41 81.6562 41C81.5 41 81.3281 40.9531 81.1406 40.8438ZM81.2812 38.0781L81.3906 38.125C81.5156 38.125 81.6875 38.0625 81.875 37.9062C82.0625 37.7656 82.2188 37.5938 82.3594 37.4062C82.4844 37.2188 82.5625 37.0469 82.5625 36.9062C82.5625 36.8438 82.5469 36.7812 82.5156 36.7188C82.4844 36.6562 82.4375 36.625 82.375 36.625C82.2344 36.625 82.0781 36.7188 81.9062 36.875C81.7188 37.0312 81.5625 37.2188 81.4375 37.4375C81.3125 37.6562 81.25 37.8281 81.25 37.9531L81.2812 38.0781ZM85.8438 40.7188C85.5781 40.5312 85.4062 40.2656 85.3281 39.9375C85.25 39.6094 85.2188 39.1875 85.2188 38.6562V38.0469C85.2188 37.5469 85.25 37.1406 85.3125 36.8281C85.3281 36.75 85.3438 36.6875 85.3438 36.6562C85.3438 36.5625 85.2969 36.5156 85.2188 36.4844C85.125 36.4531 85 36.4375 84.8438 36.4219C84.6094 36.4219 84.4375 36.3906 84.3125 36.3281C84.1875 36.2656 84.125 36.1406 84.125 35.9375C84.125 35.5938 84.2969 35.4062 84.6406 35.4062L84.9531 35.4219C85.0938 35.4531 85.2031 35.4531 85.2656 35.4531C85.375 35.4531 85.4531 35.4219 85.5 35.3594C85.5312 35.2969 85.5625 35.2031 85.5938 35.0781C85.6094 34.9531 85.6406 34.8438 85.7031 34.7656C85.75 34.7031 85.8438 34.6562 86 34.6562C86.1562 34.6562 86.25 34.7031 86.3125 34.7656C86.3594 34.8438 86.3906 34.9531 86.4219 35.0781C86.4375 35.2031 86.4688 35.2812 86.5 35.3281C86.5312 35.3906 86.5938 35.4062 86.6875 35.4062C86.9688 35.4062 87.1875 35.4375 87.3438 35.4844C87.5 35.5312 87.5938 35.6562 87.5938 35.8594C87.5938 36.0469 87.5469 36.1562 87.4688 36.2188C87.3906 36.2812 87.2656 36.3438 87.1094 36.3906C86.8594 36.4531 86.6719 36.5625 86.5469 36.7031C86.4219 36.8438 86.3594 37.125 86.3594 37.5312L86.375 38.2344C86.375 38.2969 86.3594 38.5 86.3594 38.8281C86.3594 39.1562 86.4062 39.4375 86.5312 39.6562C86.6406 39.875 86.8281 39.9844 87.0781 39.9844C87.1406 39.9844 87.2188 39.9688 87.3125 39.9062C87.4062 39.8594 87.4688 39.8281 87.5312 39.8281C87.625 39.8281 87.7031 39.875 87.7656 39.9688C87.8281 40.0625 87.875 40.1406 87.875 40.2344C87.875 40.4062 87.7656 40.5781 87.5625 40.75C87.3438 40.9219 87.1562 41 87 41C86.4844 41 86.0938 40.9062 85.8438 40.7188ZM88.9375 39.6406C88.9375 39.3906 88.9062 39 88.875 38.4531C88.8281 37.9375 88.8125 37.5469 88.8125 37.2812C88.8125 36.5312 88.9531 36.1562 89.2344 36.1562C89.4375 36.1562 89.5781 36.25 89.6562 36.4219C89.7188 36.6094 89.7812 36.8594 89.8281 37.2031C89.8438 37.4062 89.8594 37.5625 89.8906 37.6562C89.9219 37.75 89.9688 37.7969 90.0469 37.7969C90.1094 37.7969 90.1562 37.7656 90.2188 37.7031C90.2656 37.6406 90.3438 37.5156 90.4375 37.3281C90.5625 37.0781 90.6875 36.875 90.8125 36.7344C90.9375 36.5938 91.0938 36.5156 91.2812 36.5156C91.5312 36.5156 91.7031 36.625 91.8125 36.8438C91.9219 37.0625 92.0156 37.3594 92.0938 37.75C92.1562 38.0625 92.2031 38.2188 92.2188 38.2344C92.2656 38.3906 92.3594 38.5781 92.5 38.7812C92.625 39 92.75 39.1094 92.8594 39.125C92.9375 39.0312 93 38.8906 93.0312 38.6875C93.0625 38.4844 93.0938 38.2188 93.125 37.8906C93.1562 37.3594 93.2188 36.9688 93.3125 36.6875C93.4062 36.4062 93.5781 36.2656 93.8438 36.2656C94.2656 36.2656 94.4844 36.5156 94.4844 37.0156C94.4844 37.2656 94.4375 37.6875 94.3438 38.2656C94.25 38.8594 94.125 39.4062 93.9688 39.9062C93.8125 40.4062 93.6719 40.7188 93.5156 40.8281C93.3594 40.9375 93.2344 40.9844 93.1406 40.9844C92.9375 40.9844 92.7031 40.8438 92.4531 40.5469C92.1875 40.25 91.9375 39.9062 91.7188 39.5156C91.5 39.1406 91.3438 38.8281 91.25 38.5938C91.1875 38.5312 91.1406 38.5 91.125 38.5C91.0469 38.5 90.9844 38.5781 90.9219 38.7344C90.8594 38.8906 90.7969 39.1094 90.7344 39.4219C90.5625 40.0469 90.3906 40.5156 90.2344 40.8594C90.0625 41.2031 89.8281 41.375 89.5156 41.375C89.125 41.375 88.9375 40.7969 88.9375 39.6406ZM95.9688 40.2812C95.7969 39.9375 95.7188 39.4531 95.7188 38.8438C95.7188 38.1562 95.8281 37.5 96.0625 36.8594C96.2812 36.2344 96.6719 35.9062 97.2344 35.9062C97.7344 35.9062 98.1406 36.0469 98.4844 36.3281C98.8281 36.6094 99 37 99 37.4844C99 37.6719 98.9688 37.875 98.9219 38.0781C98.7344 38.8125 98.5156 39.4531 98.2344 40C97.9531 40.5469 97.5469 40.8125 97.0312 40.8125C96.4844 40.8125 96.125 40.6406 95.9688 40.2812ZM96.7969 39.4375C96.8438 39.5938 96.9219 39.6719 97.0312 39.6719C97.1406 39.6719 97.2656 39.5469 97.4219 39.2969C97.5625 39.0469 97.6719 38.8125 97.7344 38.625C97.7656 38.5 97.7969 38.3125 97.7969 38.0312C97.7969 37.8281 97.7656 37.6562 97.7344 37.5C97.7031 37.3594 97.6094 37.2812 97.4688 37.2812C97.2188 37.2812 97.0625 37.3906 97 37.6094C96.9219 37.8281 96.8594 38.1094 96.8281 38.4531C96.8125 38.5312 96.7969 38.625 96.7656 38.7188C96.7344 38.8281 96.7344 38.9219 96.7344 38.9844C96.7344 39.125 96.75 39.2812 96.7969 39.4375ZM101.234 40.7969C101.094 40.6562 101.031 40.4844 101.031 40.2656C101.031 39.2188 100.938 38.3438 100.781 37.625C100.75 37.4844 100.688 37.3125 100.609 37.1094C100.578 37.0625 100.547 36.9531 100.484 36.7812C100.422 36.6094 100.406 36.4688 100.406 36.3594C100.406 36.1719 100.469 35.9844 100.625 35.8281C100.766 35.6719 100.938 35.5938 101.125 35.5938C101.25 35.5938 101.359 35.6562 101.453 35.7812C101.531 35.9062 101.609 36.0625 101.688 36.25C101.719 36.3438 101.75 36.4375 101.797 36.5C101.828 36.5625 101.875 36.5938 101.922 36.5938C101.953 36.5938 102.078 36.5312 102.281 36.375C102.5 36.2188 102.703 36.0781 102.875 35.9844C103.047 35.8906 103.219 35.8281 103.391 35.8281C103.578 35.8281 103.75 35.875 103.875 35.9688C104 36.0625 104.078 36.1875 104.078 36.375C104.078 36.6094 104.016 36.7812 103.906 36.875C103.781 36.9844 103.609 37.0938 103.359 37.1875C103.031 37.3125 102.781 37.4688 102.609 37.6562C102.438 37.8438 102.359 38.1406 102.359 38.5625C102.359 38.7188 102.391 38.9688 102.453 39.2969C102.5 39.6875 102.531 39.9375 102.531 40.0312C102.531 40.2656 102.453 40.4844 102.312 40.6875C102.156 40.9062 101.984 41 101.766 41C101.547 41 101.375 40.9375 101.234 40.7969ZM105.328 40.7344C105.203 40.5625 105.156 40.3594 105.156 40.1406C105.156 39.9844 105.172 39.75 105.219 39.4375L105.266 39.0156C105.359 37.7969 105.422 36.3281 105.422 34.6094C105.422 34.1406 105.422 33.5781 105.453 32.9375C105.484 32.3125 105.531 31.9531 105.594 31.8906C105.703 31.7969 105.812 31.75 105.922 31.75C106.141 31.75 106.297 31.8438 106.359 32C106.422 32.1562 106.469 32.375 106.469 32.6406L106.453 34.8594C106.453 36.2344 106.484 37.0156 106.547 37.2031L106.625 37.25C106.781 37.25 106.922 37.1719 107.078 37.0312C107.234 36.9062 107.438 36.6875 107.688 36.4062C107.891 36.1562 108.062 35.9688 108.219 35.8438C108.359 35.7188 108.484 35.6406 108.609 35.6406C108.766 35.6406 108.906 35.7344 109 35.8906C109.094 36.0625 109.141 36.2344 109.141 36.4062C109.141 36.5938 109.094 36.7031 109.031 36.7656C108.969 36.8281 108.875 36.875 108.75 36.9062C108.562 36.9531 108.453 37.0156 108.391 37.0938L107.719 37.9531C107.812 38.0781 107.953 38.2031 108.109 38.2969C108.266 38.3906 108.375 38.4531 108.422 38.4688C108.594 38.5469 108.75 38.6406 108.891 38.75C109.141 38.9375 109.422 39.1875 109.719 39.4688C110 39.75 110.156 39.9844 110.156 40.1562C110.156 40.2812 110.078 40.4219 109.938 40.5469C109.797 40.6875 109.672 40.75 109.547 40.75C109.484 40.75 109 40.4531 108.094 39.8438C107.922 39.75 107.656 39.5781 107.281 39.3281C106.906 39.0781 106.688 38.9531 106.641 38.9531C106.516 38.9531 106.469 39.1094 106.469 39.4062C106.469 39.4531 106.469 39.625 106.469 39.9219C106.469 40.2344 106.422 40.4844 106.312 40.6875C106.188 40.8906 106.031 40.9844 105.812 40.9844C105.594 40.9844 105.438 40.9062 105.328 40.7344Z" fill="white"/>
<path d="M32.5156 30.6562C31.6875 29.8281 31.2422 29.3594 31.1797 29.25C31.1016 29.0938 31.0859 28.9688 31.1328 28.875C31.1484 28.8125 31.2266 28.7734 31.3672 28.7578L31.9531 28.875C32.0469 28.9062 32.0859 28.875 32.0703 28.7812C32.1016 28.3281 32.0391 26.9297 31.8828 24.5859C31.6641 21.0703 31.6172 17.6719 31.7422 14.3906C31.7891 13.5312 31.8281 12.7734 31.8594 12.1172C31.8906 11.8828 31.7656 11.75 31.4844 11.7188C30.5781 11.6406 29.0625 11.7969 26.9375 12.1875C26.6562 12.2344 26.3516 12.2734 26.0234 12.3047C25.7266 12.3359 25.4766 12.3594 25.2734 12.375C25.0703 12.3438 24.9297 12.2266 24.8516 12.0234C24.7578 11.6797 24.8281 11.4219 25.0625 11.25C25.1562 11.2344 25.3984 11.2188 25.7891 11.2031C26.1328 11.1719 26.4453 11.1406 26.7266 11.1094C29.0234 10.7188 30.8984 10.5781 32.3516 10.6875C32.8672 10.7344 33.125 10.9531 33.125 11.3438L32.9844 13.5C32.7656 17.4062 32.875 22.6172 33.3125 29.1328C33.3594 29.4453 33.4297 29.7266 33.5234 29.9766C33.5547 30.0703 33.5625 30.1406 33.5469 30.1875C33.4531 30.4219 33.2422 30.625 32.9141 30.7969C32.7578 30.8281 32.625 30.7812 32.5156 30.6562ZM30.5703 17.0859C30.9141 17.1328 31.1328 17.2734 31.2266 17.5078C31.2578 17.7578 31.2266 17.9609 31.1328 18.1172C31.0547 18.2109 30.9375 18.2734 30.7812 18.3047C30.375 18.3359 29.9141 18.3906 29.3984 18.4688C28.7578 18.5938 27.9609 18.7656 27.0078 18.9844C27.3203 19.2031 27.6562 19.5547 28.0156 20.0391C28.1562 20.3359 28.0781 20.625 27.7812 20.9062C27.5781 21.0625 27.3828 21.1016 27.1953 21.0234C27.1328 20.9922 27.0859 20.9219 27.0547 20.8125C27.0078 20.6719 26.9688 20.5859 26.9375 20.5547C26.7031 20.2891 26.4688 20.0391 26.2344 19.8047C26.0781 19.5547 26.0312 19.3516 26.0938 19.1953C25.5 19.3516 24.8672 19.5156 24.1953 19.6875C23.7734 19.7812 23.3984 19.8281 23.0703 19.8281C23.0234 19.8125 22.9844 19.7969 22.9531 19.7812C22.8906 21.5 22.8125 23.2969 22.7188 25.1719C22.7188 25.9219 22.7344 26.6328 22.7656 27.3047C22.7812 27.5234 22.8047 27.7422 22.8359 27.9609C22.7422 28.3359 22.5312 28.5391 22.2031 28.5703C21.8438 28.5547 21.6016 28.3438 21.4766 27.9375C21.4453 27.4844 21.5547 24.7188 21.8047 19.6406C21.9453 15.875 21.9922 13.75 21.9453 13.2656C21.9297 13.125 21.875 13 21.7812 12.8906C21.8281 12.6094 22.0547 12.4609 22.4609 12.4453C22.8828 12.5391 23.1016 12.8125 23.1172 13.2656C23.0859 14.9219 23.0391 16.7656 22.9766 18.7969C23.1953 18.7344 23.4844 18.6797 23.8438 18.6328C24.3438 18.5391 25.1172 18.3594 26.1641 18.0938C27.4453 17.7969 28.6484 17.5156 29.7734 17.25C30.0078 17.1719 30.2734 17.1172 30.5703 17.0859ZM29.8438 12.9375C30.125 13.1562 30.1641 13.4219 29.9609 13.7344C29.9297 13.8438 29.7266 14.1328 29.3516 14.6016C29.0391 15.0391 28.5469 15.7422 27.875 16.7109C27.4375 17.1797 27.0703 17.4766 26.7734 17.6016C26.6953 17.6797 26.625 17.6562 26.5625 17.5312V17.3438C27.1406 16.5469 27.7109 15.5391 28.2734 14.3203C28.4141 14.0078 28.5469 13.7344 28.6719 13.5C28.7969 13.2656 28.9062 13.0938 29 12.9844C29.2656 12.8125 29.5469 12.7969 29.8438 12.9375ZM30.4766 20.7656C30.8203 20.8125 31.0391 20.9531 31.1328 21.1875C31.1641 21.4375 31.1328 21.6406 31.0391 21.7969C30.9766 21.8906 30.875 21.9453 30.7344 21.9609C30.375 21.9922 29.9688 22.0391 29.5156 22.1016C28.6562 22.2734 27.4766 22.5703 25.9766 22.9922C25.9297 23.9141 25.8672 24.8281 25.7891 25.7344C25.9453 25.75 27.3438 25.4453 29.9844 24.8203C30.4062 24.8516 30.6484 25.0547 30.7109 25.4297C30.6641 25.8203 30.4922 26.0547 30.1953 26.1328C30.0078 26.1328 29.7969 26.1406 29.5625 26.1562C28.6875 26.2969 27.4609 26.5625 25.8828 26.9531C25.4766 27.0938 25.2109 27.1562 25.0859 27.1406C24.8047 27.0781 24.6172 26.8828 24.5234 26.5547C24.5391 26.3203 24.5859 26.0938 24.6641 25.875C24.7422 24.9688 24.7891 24.1094 24.8047 23.2969C24.5078 23.3438 24.25 23.3672 24.0312 23.3672C23.7031 23.3203 23.5312 23.1641 23.5156 22.8984C23.4688 22.6797 23.4922 22.5078 23.5859 22.3828C23.6328 22.2734 23.9688 22.1797 24.5938 22.1016C25.0312 22.0234 25.7109 21.8672 26.6328 21.6328C27.7422 21.3828 28.7891 21.1406 29.7734 20.9062C29.9922 20.8281 30.2266 20.7812 30.4766 20.7656ZM25.1328 13.9688C25.2109 14 25.2656 14.0469 25.2969 14.1094C25.5 15.0938 25.8828 15.7812 26.4453 16.1719C26.4609 16.1875 26.4844 16.2031 26.5156 16.2188C26.625 16.4531 26.6016 16.6875 26.4453 16.9219C26.2422 17.1406 26.0156 17.1875 25.7656 17.0625C25.4844 16.8906 25.2344 16.6484 25.0156 16.3359C24.625 15.8047 24.3828 15.1719 24.2891 14.4375C24.3047 14.2188 24.3906 14.0469 24.5469 13.9219C24.7344 13.7031 24.9297 13.7188 25.1328 13.9688ZM17.4219 10.0781C17.6406 10.2031 17.7891 10.3906 17.8672 10.6406C17.8984 10.7969 17.8672 10.9375 17.7734 11.0625C17.3828 11.625 16.4844 13.3438 15.0781 16.2188C15 16.3438 15.0469 16.3984 15.2188 16.3828C16.1719 16.0078 17.2422 15.5547 18.4297 15.0234C18.5391 14.9453 18.6328 14.8594 18.7109 14.7656C18.7734 14.6875 18.8438 14.6406 18.9219 14.625C19.25 14.5938 19.4922 14.7109 19.6484 14.9766C19.7422 15.1328 19.7578 15.3672 19.6953 15.6797C19.6328 15.8047 19.5547 15.9062 19.4609 15.9844C19.1953 16.1719 18.9453 16.375 18.7109 16.5938C18.3359 16.8594 17.1406 18.5 15.125 21.5156C15.0781 21.6562 15.1172 21.7031 15.2422 21.6562C16.2891 21.1719 17.2031 20.6953 17.9844 20.2266C18.2344 20.1172 18.4453 19.9375 18.6172 19.6875C18.8203 19.5 19.0781 19.4609 19.3906 19.5703C19.5 19.7109 19.6719 19.9844 19.9062 20.3906C20.1094 20.75 20.375 21.0703 20.7031 21.3516C20.8125 21.4453 20.8984 21.6094 20.9609 21.8438C20.9922 22.0156 21 22.1719 20.9844 22.3125C20.9375 22.4531 20.8359 22.5469 20.6797 22.5938C20.5391 22.6406 20.3828 22.625 20.2109 22.5469C19.8359 22.2812 19.4844 21.9531 19.1562 21.5625C19.0938 21.4219 19.0312 21.2891 18.9688 21.1641C18.875 21.0391 18.7734 21.0156 18.6641 21.0938C18.3828 21.3594 17.3672 21.8438 15.6172 22.5469C14.4609 23.0625 13.8125 23.375 13.6719 23.4844C13.5781 23.5312 13.4844 23.5781 13.3906 23.625H13.1328C13.0078 23.5781 12.875 23.4297 12.7344 23.1797V22.6875C12.7969 22.5938 12.8984 22.5 13.0391 22.4062C13.3984 22.0469 14.6641 20.2656 16.8359 17.0625C16.9141 16.8594 16.8438 16.8047 16.625 16.8984C16.5312 16.9453 15.8125 17.2734 14.4688 17.8828C13.9688 18.1016 13.5859 18.1953 13.3203 18.1641C13.1328 18.1016 13 18 12.9219 17.8594C12.8281 17.7188 12.8047 17.5469 12.8516 17.3438C12.8672 17.2344 13.2344 16.7422 13.9531 15.8672L16.4375 10.9453C16.5625 10.7109 16.6562 10.4844 16.7188 10.2656C16.8906 10.0312 17.125 9.96875 17.4219 10.0781ZM16.9062 25.2656C17.3125 25.7656 17.6094 26.4297 17.7969 27.2578C17.8281 27.3672 17.8516 27.5 17.8672 27.6562C17.8828 27.9531 17.7891 28.125 17.5859 28.1719C17.4297 28.2031 17.2891 28.1562 17.1641 28.0312C17.1172 28 17.0547 27.9141 16.9766 27.7734C16.6016 27.0391 16.2422 26.4922 15.8984 26.1328C15.5234 25.7266 15.5078 25.3906 15.8516 25.125C15.9922 24.9688 16.1797 24.9062 16.4141 24.9375C16.5234 24.9531 16.6875 25.0625 16.9062 25.2656ZM19.3438 24.0703C19.7344 24.5234 20.0391 25.1328 20.2578 25.8984C20.2891 25.9922 20.3125 26.1094 20.3281 26.25C20.3438 26.5469 20.25 26.7188 20.0469 26.7656C19.8906 26.7969 19.75 26.75 19.625 26.625C19.5781 26.5938 19.5156 26.5156 19.4375 26.3906C19.0625 25.75 18.6953 25.2656 18.3359 24.9375C17.9609 24.5312 17.9453 24.1953 18.2891 23.9297C18.4141 23.7734 18.6016 23.7109 18.8516 23.7422C18.9609 23.7578 19.125 23.8672 19.3438 24.0703ZM14.3047 29.0625C13.9453 28.4062 13.5781 27.7812 13.2031 27.1875C12.9844 26.8281 12.9766 26.5391 13.1797 26.3203C13.3359 26.1484 13.5312 26.0938 13.7656 26.1562C14.2969 26.5156 14.8984 27.5078 15.5703 29.1328C15.7422 29.4453 15.6484 29.7578 15.2891 30.0703C15.0703 30.2266 14.8672 30.2656 14.6797 30.1875C14.5859 30.125 14.5156 29.9453 14.4688 29.6484C14.4219 29.3203 14.3672 29.125 14.3047 29.0625ZM41.7266 23.9531C41.3516 22.6094 40.5859 21.1328 39.4297 19.5234C39.1953 19.2891 39.0625 19.0469 39.0312 18.7969C39.0156 18.5938 39.0859 18.2969 39.2422 17.9062C39.9297 15.9688 40.6953 14.3047 41.5391 12.9141C40.2891 13.1484 38.8438 13.7578 37.2031 14.7422C36.7812 14.8516 36.4922 14.7734 36.3359 14.5078C36.1641 14.1953 36.2266 13.9141 36.5234 13.6641C37.7734 12.9297 39.6172 12.2266 42.0547 11.5547C42.3672 11.3984 42.5859 11.3125 42.7109 11.2969C43.0391 11.2969 43.2656 11.3984 43.3906 11.6016C43.5156 11.7422 43.5469 11.9766 43.4844 12.3047C43.2656 12.6797 43.0312 13.0469 42.7812 13.4062C41.7812 14.9219 40.9688 16.5234 40.3438 18.2109C40.2812 18.3203 40.2578 18.4141 40.2734 18.4922C40.2891 18.5703 40.3281 18.6562 40.3906 18.75C41.5625 20.4531 42.3828 22.1016 42.8516 23.6953C43.0547 24.2891 43.1016 24.6953 42.9922 24.9141C42.8828 25.1484 42.6172 25.2656 42.1953 25.2656C41.0234 25.375 39.6953 24.8359 38.2109 23.6484C38.1328 23.6328 38.0781 23.6016 38.0469 23.5547C37.9688 24.5547 37.8984 25.6016 37.8359 26.6953C37.8203 27.3359 37.8359 27.9531 37.8828 28.5469C37.8984 28.7656 37.9219 28.9844 37.9531 29.2031C37.8594 29.5781 37.6484 29.7812 37.3203 29.8125C36.9453 29.7969 36.6953 29.5859 36.5703 29.1797C36.5078 28.7891 36.6484 26.3672 36.9922 21.9141C37.1641 18.6016 37.2188 16.7422 37.1562 16.3359C37.1406 16.1797 37.0859 16.0469 36.9922 15.9375C37.0391 15.6406 37.2734 15.4844 37.6953 15.4688C38.1172 15.5625 38.3359 15.8438 38.3516 16.3125C38.3047 18.2344 38.2109 20.4844 38.0703 23.0625C38.1641 23.0312 38.2812 23.0234 38.4219 23.0391C39.5469 23.7422 40.6484 24.0469 41.7266 23.9531ZM57.4766 29.6953C57.2266 29.9297 56.9453 29.9141 56.6328 29.6484C55.2266 28.2578 54.2422 27.3984 53.6797 27.0703C53.5234 26.9922 53.3594 26.9141 53.1875 26.8359C52.7656 26.5547 52.7188 26.2344 53.0469 25.875C53.2188 25.7031 53.4453 25.6484 53.7266 25.7109C54.6016 26.0078 55.8125 26.9922 57.3594 28.6641C57.6875 29.0234 57.7266 29.3672 57.4766 29.6953ZM52.2734 18.0938C52.6484 18.1406 52.8906 18.2891 53 18.5391C53.0469 18.8203 53.0078 19.0469 52.8828 19.2188C52.8203 19.2969 52.7344 19.3438 52.625 19.3594C52.3281 19.4062 52 19.4609 51.6406 19.5234C50.7969 19.7109 49.5703 20.0703 47.9609 20.6016C47.6641 20.6797 47.3984 20.7188 47.1641 20.7188C46.8516 20.6562 46.6875 20.5156 46.6719 20.2969C46.625 20.0781 46.6484 19.9062 46.7422 19.7812C46.7734 19.6562 47.0391 19.5547 47.5391 19.4766C47.8828 19.3984 48.4297 19.2422 49.1797 19.0078C50.0703 18.7266 50.9141 18.4688 51.7109 18.2344C51.8828 18.1562 52.0703 18.1094 52.2734 18.0938ZM53.75 16.7344C54.9688 17.9062 56.1172 18.8281 57.1953 19.5C57.2422 19.5312 57.3125 19.5547 57.4062 19.5703C57.4531 19.5703 57.5 19.5938 57.5469 19.6406C57.875 19.875 57.9922 20.2031 57.8984 20.625C57.8047 20.9844 57.6172 21.1484 57.3359 21.1172C57.2578 21.0859 57.1719 21.0312 57.0781 20.9531C55.3906 19.9062 53.7422 18.4922 52.1328 16.7109C51.5078 16.0859 51.0234 15.6641 50.6797 15.4453C50.4922 15.3047 50.3203 15.1953 50.1641 15.1172C49.8672 14.9297 49.75 14.6641 49.8125 14.3203C49.9688 14.0078 50.2344 13.8672 50.6094 13.8984C50.6719 13.8828 50.8359 13.9766 51.1016 14.1797C51.5547 14.5547 52.0938 15.0625 52.7188 15.7031C52.8438 15.8438 52.9688 15.9688 53.0938 16.0781C53.9062 14.6562 54.4219 13.6562 54.6406 13.0781C53.8906 13.1094 52.8828 13.3047 51.6172 13.6641C51.0547 13.6328 50.7891 13.3984 50.8203 12.9609C50.8359 12.7266 51.1328 12.5469 51.7109 12.4219C52.9297 12.1562 54.1641 11.9609 55.4141 11.8359C55.6172 11.7891 55.7969 11.7422 55.9531 11.6953C56.2188 11.6641 56.4062 11.8906 56.5156 12.375C56.6094 12.6719 56.3984 13.0859 55.8828 13.6172C55.1172 14.8516 54.4062 15.8906 53.75 16.7344ZM55.2734 21.2578C55.6328 21.3828 55.7891 21.6562 55.7422 22.0781C55.6641 22.3906 55.4531 22.5938 55.1094 22.6875C54.1875 22.7031 52.8594 22.9062 51.125 23.2969C51.0469 23.4531 51 23.6016 50.9844 23.7422C50.7344 25.4453 50.6797 27.5625 50.8203 30.0938C50.7578 30.2812 50.6641 30.4141 50.5391 30.4922C50.3516 30.5703 50.1719 30.5625 50 30.4688C48.9062 29.9375 47.8047 29.0078 46.6953 27.6797C45.9141 28.3984 45.3047 28.9453 44.8672 29.3203C44.4766 29.6797 44.0781 29.9219 43.6719 30.0469C43.4375 30.0938 43.2422 30.0312 43.0859 29.8594C42.9766 29.5781 43.0234 29.3359 43.2266 29.1328C44.2734 28.3516 45.1953 27.5 45.9922 26.5781C46.2109 26.3125 46.4688 26.1953 46.7656 26.2266C46.9531 26.2266 47.125 26.3281 47.2812 26.5312C47.8125 27.4375 48.5703 28.1328 49.5547 28.6172C49.4922 26.6797 49.5391 25.0234 49.6953 23.6484C49.2266 23.7578 48.7578 23.875 48.2891 24C47.3047 24.2812 46.4141 24.5781 45.6172 24.8906C45.4609 24.9219 45.3125 24.9141 45.1719 24.8672C44.875 24.7578 44.7031 24.5859 44.6562 24.3516C44.6094 24.1641 44.6484 24.0078 44.7734 23.8828C44.8359 23.7266 45.8594 23.375 47.8438 22.8281C49.7344 22.2969 52.0312 21.8047 54.7344 21.3516C55.0156 21.2891 55.1953 21.2578 55.2734 21.2578ZM47.3516 15.3047C47.8828 14.3672 48.3984 13.4531 48.8984 12.5625C48.0547 12.6719 47.0703 13.0156 45.9453 13.5938C45.8047 13.6406 45.6953 13.6484 45.6172 13.6172C44.9453 14.6172 44.2344 15.5469 43.4844 16.4062C43.1875 16.5938 42.9062 16.6016 42.6406 16.4297C42.4219 16.2422 42.3672 16.0156 42.4766 15.75C43.8828 14.2656 45.1406 12.4219 46.25 10.2188C46.2969 10.1406 46.3125 10.0547 46.2969 9.96094C46.2969 9.88281 46.3047 9.82031 46.3203 9.77344C46.4297 9.64844 46.6172 9.58594 46.8828 9.58594C47.3047 9.77344 47.5234 10.0625 47.5391 10.4531C47.2422 10.9688 46.9609 11.4609 46.6953 11.9297C47.6172 11.6328 48.5859 11.4219 49.6016 11.2969C49.9766 11.2656 50.2344 11.375 50.375 11.625C50.5781 11.7812 50.625 12.0078 50.5156 12.3047C50.4219 12.5859 50.0938 13.1328 49.5312 13.9453C48.125 16.2266 46.6016 18.7812 44.9609 21.6094C44.6328 22.1875 44.3984 22.5156 44.2578 22.5938C43.9453 22.7969 43.6484 22.8359 43.3672 22.7109C43.1172 22.5234 43.0312 22.2812 43.1094 21.9844C43.125 21.9219 43.1797 21.8672 43.2734 21.8203C43.4141 21.8359 43.5391 21.7891 43.6484 21.6797C43.8359 21.6016 44.4688 20.5703 45.5469 18.5859C44.875 18.2109 44.4062 17.9766 44.1406 17.8828C43.9844 17.8047 43.8203 17.7266 43.6484 17.6484C43.2266 17.3672 43.1719 17.0469 43.4844 16.6875C43.6719 16.5156 43.9062 16.4609 44.1875 16.5234C44.6719 16.6328 45.3203 16.9531 46.1328 17.4844C46.3516 17.0781 46.5625 16.7031 46.7656 16.3594C46.3438 16.0312 46.0469 15.8281 45.875 15.75C45.7344 15.6719 45.5859 15.6016 45.4297 15.5391C45.0078 15.2734 44.9609 14.9688 45.2891 14.625C45.4453 14.4844 45.6562 14.4375 45.9219 14.4844C46.2812 14.5781 46.7578 14.8516 47.3516 15.3047ZM63.5703 16.3125C63.6172 16.0156 63.8516 15.8594 64.2734 15.8438C64.6953 15.9375 64.9141 16.2188 64.9297 16.6875C64.8984 18.4844 64.8203 20.7188 64.6953 23.3906C64.6953 23.7969 64.7031 24.1953 64.7188 24.5859C64.7344 24.8047 64.7578 25.0234 64.7891 25.2422C64.6953 25.6172 64.4844 25.8203 64.1562 25.8516C63.7812 25.8359 63.5312 25.625 63.4062 25.2188C63.375 24.9531 63.4531 23.3516 63.6406 20.4141C63.7344 18.2109 63.7656 16.9766 63.7344 16.7109C63.7188 16.5547 63.6641 16.4219 63.5703 16.3125ZM70.0391 26.0625C69.2422 25.2656 68.8125 24.8203 68.75 24.7266C68.7031 24.5859 68.6953 24.4688 68.7266 24.375C68.7422 24.2969 68.8203 24.25 68.9609 24.2344L69.5234 24.375C69.6016 24.4531 69.6328 24.3672 69.6172 24.1172C69.6328 23.9141 69.6016 23.2891 69.5234 22.2422C69.4453 20.6797 69.4297 19.1641 69.4766 17.6953C69.5078 17.3203 69.5234 16.9844 69.5234 16.6875C69.5703 16.4062 69.3984 16.25 69.0078 16.2188C68.5391 16.1094 67.7656 16.3125 66.6875 16.8281C66.5312 16.8906 66.375 16.9453 66.2188 16.9922C66.0781 17.0234 65.9531 17.0469 65.8438 17.0625C65.625 17.0312 65.4609 16.9062 65.3516 16.6875C65.2266 16.2812 65.3125 15.9844 65.6094 15.7969C65.6719 15.7812 65.8203 15.7578 66.0547 15.7266C66.2578 15.6953 66.4453 15.6562 66.6172 15.6094C67.9922 15.1094 69.1172 14.9297 69.9922 15.0703C70.4766 15.1172 70.7188 15.3594 70.7188 15.7969L70.6484 16.8516C70.5391 18.7578 70.5938 21.3047 70.8125 24.4922C70.8594 24.8359 70.9297 25.1484 71.0234 25.4297C71.0547 25.5547 71.0625 25.6484 71.0469 25.7109C70.9531 25.8984 70.7422 26.0625 70.4141 26.2031C70.2734 26.2344 70.1484 26.1875 70.0391 26.0625ZM72.6641 16.6172C72.7109 16.3359 72.9375 16.1875 73.3438 16.1719C73.7656 16.2656 73.9844 16.5391 74 16.9922C73.9844 18.1641 73.9531 19.6172 73.9062 21.3516C73.8906 21.6172 73.8906 21.875 73.9062 22.125C73.9219 22.3281 73.9453 22.5312 73.9766 22.7344C73.8828 23.0781 73.6875 23.2656 73.3906 23.2969C73.0469 23.2969 72.8125 23.1016 72.6875 22.7109C72.6719 22.5391 72.7031 21.4609 72.7812 19.4766C72.8281 18.0234 72.8438 17.2031 72.8281 17.0156C72.8125 16.8594 72.7578 16.7266 72.6641 16.6172ZM74.8203 24.3984C74.8984 24.2578 75.0469 24.2109 75.2656 24.2578C76.4375 24.7578 77.0391 24.9844 77.0703 24.9375C76.8828 23.5 76.8047 22.0625 76.8359 20.625C76.8047 18.5469 76.9141 16.4766 77.1641 14.4141C77.1641 13.8984 77.3594 13.6484 77.75 13.6641C78.1719 13.7109 78.4062 13.9062 78.4531 14.25C78.1562 16.0625 78.0078 18.1797 78.0078 20.6016C78.0234 22.3047 78.1719 24.25 78.4531 26.4375C78.4219 26.6406 78.3203 26.8047 78.1484 26.9297C77.9453 27.0234 77.7578 27.0156 77.5859 26.9062C77.4609 26.7969 77.2891 26.625 77.0703 26.3906C76.8047 26.0625 76.125 25.5625 75.0312 24.8906C74.8438 24.75 74.7734 24.5859 74.8203 24.3984ZM68.0938 18.4453C68.4844 18.4922 68.7344 18.6406 68.8438 18.8906C68.9062 19.1875 68.8594 19.4219 68.7031 19.5938C68.6719 19.625 68.6328 19.6484 68.5859 19.6641C68.4453 19.6797 68.2891 19.6953 68.1172 19.7109C67.6953 19.7891 67.1094 19.9453 66.3594 20.1797C66.2188 20.2109 66.0938 20.2266 65.9844 20.2266C65.6406 20.1641 65.4609 20 65.4453 19.7344C65.3828 19.5156 65.4141 19.3438 65.5391 19.2188C65.5547 19.1719 65.6797 19.125 65.9141 19.0781C66.0703 19.0469 66.3203 18.9766 66.6641 18.8672C67.0703 18.7422 67.4609 18.625 67.8359 18.5156C67.9141 18.4844 68 18.4609 68.0938 18.4453ZM68.2812 21.1875C68.6406 21.2344 68.875 21.3828 68.9844 21.6328C69.0156 21.8984 68.9844 22.1094 68.8906 22.2656C68.8594 22.3125 68.8125 22.3438 68.75 22.3594C68.5938 22.375 68.4141 22.3984 68.2109 22.4297C67.7578 22.5234 67.0938 22.7031 66.2188 22.9688C66.0625 23 65.9219 23.0156 65.7969 23.0156C65.4531 22.9531 65.2734 22.7891 65.2578 22.5234C65.2109 22.3047 65.2344 22.1328 65.3281 22.0078C65.3438 21.9609 65.4844 21.9141 65.75 21.8672C65.9375 21.8203 66.2344 21.7422 66.6406 21.6328C67.1094 21.5078 67.5547 21.3828 67.9766 21.2578C68.0703 21.2266 68.1719 21.2031 68.2812 21.1875ZM79.7422 10.6641C80.1016 10.7734 80.2578 11.0391 80.2109 11.4609C80.1328 11.7734 79.9219 11.9766 79.5781 12.0703C77.0781 12.1016 73 12.5859 67.3438 13.5234C65.5625 13.8203 63.9609 14.1484 62.5391 14.5078C62.3828 14.5391 62.2344 14.5312 62.0938 14.4844C61.7969 14.375 61.625 14.2031 61.5781 13.9688C61.5156 13.7812 61.5547 13.625 61.6953 13.5C61.7891 13.3438 63.5547 12.9609 66.9922 12.3516C68.2109 12.1172 69.5156 11.9062 70.9062 11.7188C71.4219 11.3594 71.9922 10.8672 72.6172 10.2422C73.4453 9.44531 74.1094 8.89062 74.6094 8.57812C74.9844 8.34375 75.3281 8.375 75.6406 8.67188C75.8125 8.89062 75.8438 9.125 75.7344 9.375C75.1406 9.71875 74.5312 10.1328 73.9062 10.6172C73.5312 10.9297 73.1875 11.2031 72.875 11.4375C74.7188 11.1875 76.6953 10.9531 78.8047 10.7344C79.2891 10.6719 79.6016 10.6484 79.7422 10.6641ZM67.7891 11.625C66.8984 11.25 66.3281 10.6797 66.0781 9.91406C66.0469 9.47656 66.2578 9.22656 66.7109 9.16406C66.8984 9.14844 67.0469 9.17969 67.1562 9.25781C67.2656 9.32031 67.3203 9.41406 67.3203 9.53906V9.82031C67.4141 10.1016 67.6172 10.3984 67.9297 10.7109C68.0859 10.8359 68.25 10.9531 68.4219 11.0625C68.4844 11.25 68.4453 11.4141 68.3047 11.5547C68.1484 11.6641 67.9766 11.6875 67.7891 11.625ZM74.0234 29.4141C73.6328 28.9453 73.2344 28.5 72.8281 28.0781C72.5938 27.7188 72.5859 27.4297 72.8047 27.2109C72.9609 27.0391 73.1562 26.9844 73.3906 27.0469C73.9531 27.3125 74.6016 28.0156 75.3359 29.1562C75.5078 29.4688 75.4141 29.7812 75.0547 30.0938C74.8359 30.25 74.6328 30.2891 74.4453 30.2109C74.3516 30.1641 74.2812 30.0312 74.2344 29.8125C74.1562 29.5938 74.0859 29.4609 74.0234 29.4141ZM68.7969 29.6016C68.3438 29.1328 67.8828 28.6875 67.4141 28.2656C67.1953 27.9219 67.1875 27.6406 67.3906 27.4219C67.5469 27.25 67.7422 27.1953 67.9766 27.2578C68.6172 27.5078 69.3438 28.2031 70.1562 29.3438C70.3281 29.6562 70.2344 29.9766 69.875 30.3047C69.6562 30.4453 69.4531 30.4766 69.2656 30.3984C69.1562 30.3516 69.0703 30.2266 69.0078 30.0234C68.9297 29.7891 68.8594 29.6484 68.7969 29.6016ZM79.3672 27.7266C80.3203 28.2578 81.0547 28.9844 81.5703 29.9062C81.6484 30.0156 81.7031 30.1562 81.7344 30.3281C81.75 30.6094 81.6641 30.7734 81.4766 30.8203C81.3203 30.8516 81.1797 30.8125 81.0547 30.7031C80.9609 30.6562 80.8359 30.5547 80.6797 30.3984C79.8828 29.5703 79.1328 28.9531 78.4297 28.5469C78.2422 28.1562 78.2344 27.8359 78.4062 27.5859C78.5312 27.4297 78.7031 27.3672 78.9219 27.3984C79.0312 27.4141 79.1797 27.5234 79.3672 27.7266ZM64.5547 30.375C64.3047 30.6094 64.0234 30.5938 63.7109 30.3281C62.5859 29.3906 61.7969 28.8125 61.3438 28.5938C61.1875 28.5156 61.0234 28.4375 60.8516 28.3594C60.4297 28.0781 60.3828 27.7578 60.7109 27.3984C60.8828 27.2266 61.1094 27.1719 61.3906 27.2344C62.1406 27.4531 63.1562 28.1562 64.4375 29.3438C64.7656 29.7031 64.8047 30.0469 64.5547 30.375ZM99.0781 10.4531C97.8125 10.4375 96.3906 10.5234 94.8125 10.7109C95.0156 10.9766 95.0391 11.3984 94.8828 11.9766L94.6016 14.2266C94.7109 14.1953 94.8359 14.1641 94.9766 14.1328C95.2734 14.0547 95.75 13.8984 96.4062 13.6641C96.9062 13.5078 97.375 13.3516 97.8125 13.1953C97.75 12.9922 97.8125 12.7656 98 12.5156L99.1719 10.7812C99.3594 10.5781 99.3281 10.4688 99.0781 10.4531ZM99.125 12.7734C99.5156 12.8203 99.7656 12.9688 99.875 13.2188C99.9219 13.5 99.8828 13.7266 99.7578 13.8984C99.7109 13.9766 99.6328 14.0234 99.5234 14.0391C99.2578 14.0703 98.9688 14.1172 98.6562 14.1797C97.9062 14.3672 96.8125 14.7188 95.375 15.2344C95.1094 15.3125 94.875 15.3516 94.6719 15.3516C94.5938 15.3359 94.5234 15.3203 94.4609 15.3047C94.4141 15.6172 94.3516 15.8594 94.2734 16.0312C94.6016 16.1094 94.9062 16.1875 95.1875 16.2656C98.7188 17.2031 102.039 17.9219 105.148 18.4219C105.273 18.4375 105.438 18.4453 105.641 18.4453C105.75 18.4453 105.852 18.4609 105.945 18.4922C106.258 18.7109 106.367 19.0078 106.273 19.3828C106.18 19.7266 106.008 19.8828 105.758 19.8516C105.602 19.8359 105.422 19.8047 105.219 19.7578C101.516 19.1484 97.9062 18.3359 94.3906 17.3203C93.0156 16.9453 91.9531 16.6953 91.2031 16.5703C90.8281 16.5078 90.4922 16.4531 90.1953 16.4062C89.4297 17.3594 88.4688 18.4922 87.3125 19.8047L85.9531 21.3516C85.5 21.7734 85.1953 21.9844 85.0391 21.9844C84.8047 22.0156 84.6328 21.9375 84.5234 21.75C84.4141 21.4219 84.4531 21.1406 84.6406 20.9062C84.8281 20.7656 85.0234 20.6016 85.2266 20.4141C88.7734 16.4453 90.625 14.1094 90.7812 13.4062C90.9531 12.875 91.1562 12.625 91.3906 12.6562C91.9844 12.8281 92.1953 13.1797 92.0234 13.7109C91.9141 14.0391 91.5781 14.5859 91.0156 15.3516C91.1719 15.3672 91.3516 15.3906 91.5547 15.4219C92.0078 15.5156 92.5 15.625 93.0312 15.75C93.0625 15.6562 93.0938 15.5625 93.125 15.4688C93.3125 15 93.5156 13.8281 93.7344 11.9531C93.7188 11.6562 93.6719 11.3906 93.5938 11.1562C93.5469 11.0781 93.5234 11 93.5234 10.9219C91.8516 11.2344 90.4062 11.5938 89.1875 12C88.6719 12.25 88.3047 12.2734 88.0859 12.0703C87.7891 11.5547 87.9688 11.1562 88.625 10.875C90.5 10.3438 92.4766 9.94531 94.5547 9.67969C96.3984 9.46094 98.2969 9.34375 100.25 9.32812C100.484 9.21875 100.703 9.16406 100.906 9.16406C101.328 9.27344 101.555 9.58594 101.586 10.1016C101.57 10.3047 101.375 10.5469 101 10.8281C100.422 11.375 99.7969 12.0234 99.125 12.7734ZM90.8047 24.5625C91.0234 24.5312 91.2656 24.5 91.5312 24.4688C91.9844 24.4219 92.6641 24.3125 93.5703 24.1406C93.6016 23.8281 93.625 23.5156 93.6406 23.2031C93.6875 22.5 93.7188 21.9062 93.7344 21.4219C92.5 21.625 91.2109 21.875 89.8672 22.1719C90.1016 23 90.4141 23.7969 90.8047 24.5625ZM89.5625 20.9766C90.9375 20.7109 92.3438 20.4609 93.7812 20.2266C93.7812 19.7578 93.7734 19.4609 93.7578 19.3359C93.7422 19.1797 93.6875 19.0469 93.5938 18.9375C93.6406 18.6406 93.875 18.4844 94.2969 18.4688C94.7188 18.5625 94.9375 18.8438 94.9531 19.3125C94.9531 19.5625 94.9453 19.8047 94.9297 20.0391C96.9297 19.7266 98.5312 19.5391 99.7344 19.4766C100.391 19.5391 100.852 19.75 101.117 20.1094C101.211 20.375 101.156 20.6562 100.953 20.9531L99.0078 23.3438C99.2578 23.4219 99.4297 23.5547 99.5234 23.7422C99.5547 24.0234 99.5078 24.25 99.3828 24.4219C99.3047 24.5 99.1797 24.5469 99.0078 24.5625C98.5703 24.5938 98.0781 24.6406 97.5312 24.7031C96.7656 24.8125 95.8125 24.9688 94.6719 25.1719C94.6562 25.5625 94.6328 25.9531 94.6016 26.3438C94.5859 26.7812 94.5938 27.2031 94.625 27.6094C94.625 27.7031 94.6328 27.7969 94.6484 27.8906C94.9609 27.8438 95.2969 27.8047 95.6562 27.7734C97.3438 27.6172 98.3906 27.4688 98.7969 27.3281C99.3594 26.8906 99.875 26.7188 100.344 26.8125C100.688 26.8438 101.242 27.3203 102.008 28.2422C102.508 28.7734 103.023 29.3047 103.555 29.8359C103.695 30.0703 103.703 30.2812 103.578 30.4688C103.406 30.6406 103.125 30.6484 102.734 30.4922C101.047 29.0703 100.133 28.3906 99.9922 28.4531C97.4609 28.75 94.7891 29.1641 91.9766 29.6953C90.9141 29.8984 89.9531 30.0859 89.0938 30.2578C88.6562 30.2578 88.3906 30.0469 88.2969 29.625C88.25 29.25 88.3906 29.0078 88.7188 28.8984C89.2188 28.6797 90.75 28.3984 93.3125 28.0547C93.3281 27.6328 93.375 26.75 93.4531 25.4062C92.9844 25.5 92.4922 25.5938 91.9766 25.6875C91.8047 25.7188 91.6328 25.7422 91.4609 25.7578C91.5234 26.0547 91.4141 26.3047 91.1328 26.5078C90.7578 26.6172 90.4922 26.5156 90.3359 26.2031C89.9453 25.8125 89.4609 24.7812 88.8828 23.1094C88.6953 22.375 88.4922 21.6875 88.2734 21.0469C88.1484 20.6562 88.1172 20.4062 88.1797 20.2969C88.2734 19.9375 88.5078 19.8047 88.8828 19.8984C89.1328 19.9922 89.3203 20.1406 89.4453 20.3438L89.5391 20.9297C89.5391 20.9453 89.5469 20.9609 89.5625 20.9766ZM97.5547 23.4844C97.8047 23.1406 97.9922 22.8828 98.1172 22.7109C98.6797 21.9609 99.0391 21.4219 99.1953 21.0938C99.3672 20.8281 99.2734 20.7109 98.9141 20.7422C98.2422 20.7422 96.9453 20.8984 95.0234 21.2109C94.9766 21.2109 94.9297 21.2188 94.8828 21.2344C94.8516 22.0938 94.8047 23 94.7422 23.9531C95.7109 23.7969 96.6484 23.6406 97.5547 23.4844ZM128.516 30.6562C127.688 29.8281 127.242 29.3594 127.18 29.25C127.102 29.0938 127.086 28.9688 127.133 28.875C127.148 28.8125 127.227 28.7734 127.367 28.7578L127.953 28.875C128.047 28.9062 128.086 28.875 128.07 28.7812C128.102 28.3281 128.039 26.9297 127.883 24.5859C127.664 21.0703 127.617 17.6719 127.742 14.3906C127.789 13.5312 127.828 12.7734 127.859 12.1172C127.891 11.8828 127.766 11.75 127.484 11.7188C126.578 11.6406 125.062 11.7969 122.938 12.1875C122.656 12.2344 122.352 12.2734 122.023 12.3047C121.727 12.3359 121.477 12.3594 121.273 12.375C121.07 12.3438 120.93 12.2266 120.852 12.0234C120.758 11.6797 120.828 11.4219 121.062 11.25C121.156 11.2344 121.398 11.2188 121.789 11.2031C122.133 11.1719 122.445 11.1406 122.727 11.1094C125.023 10.7188 126.898 10.5781 128.352 10.6875C128.867 10.7344 129.125 10.9531 129.125 11.3438L128.984 13.5C128.766 17.4062 128.875 22.6172 129.312 29.1328C129.359 29.4453 129.43 29.7266 129.523 29.9766C129.555 30.0703 129.562 30.1406 129.547 30.1875C129.453 30.4219 129.242 30.625 128.914 30.7969C128.758 30.8281 128.625 30.7812 128.516 30.6562ZM126.57 17.0859C126.914 17.1328 127.133 17.2734 127.227 17.5078C127.258 17.7578 127.227 17.9609 127.133 18.1172C127.055 18.2109 126.938 18.2734 126.781 18.3047C126.375 18.3359 125.914 18.3906 125.398 18.4688C124.758 18.5938 123.961 18.7656 123.008 18.9844C123.32 19.2031 123.656 19.5547 124.016 20.0391C124.156 20.3359 124.078 20.625 123.781 20.9062C123.578 21.0625 123.383 21.1016 123.195 21.0234C123.133 20.9922 123.086 20.9219 123.055 20.8125C123.008 20.6719 122.969 20.5859 122.938 20.5547C122.703 20.2891 122.469 20.0391 122.234 19.8047C122.078 19.5547 122.031 19.3516 122.094 19.1953C121.5 19.3516 120.867 19.5156 120.195 19.6875C119.773 19.7812 119.398 19.8281 119.07 19.8281C119.023 19.8125 118.984 19.7969 118.953 19.7812C118.891 21.5 118.812 23.2969 118.719 25.1719C118.719 25.9219 118.734 26.6328 118.766 27.3047C118.781 27.5234 118.805 27.7422 118.836 27.9609C118.742 28.3359 118.531 28.5391 118.203 28.5703C117.844 28.5547 117.602 28.3438 117.477 27.9375C117.445 27.4844 117.555 24.7188 117.805 19.6406C117.945 15.875 117.992 13.75 117.945 13.2656C117.93 13.125 117.875 13 117.781 12.8906C117.828 12.6094 118.055 12.4609 118.461 12.4453C118.883 12.5391 119.102 12.8125 119.117 13.2656C119.086 14.9219 119.039 16.7656 118.977 18.7969C119.195 18.7344 119.484 18.6797 119.844 18.6328C120.344 18.5391 121.117 18.3594 122.164 18.0938C123.445 17.7969 124.648 17.5156 125.773 17.25C126.008 17.1719 126.273 17.1172 126.57 17.0859ZM125.844 12.9375C126.125 13.1562 126.164 13.4219 125.961 13.7344C125.93 13.8438 125.727 14.1328 125.352 14.6016C125.039 15.0391 124.547 15.7422 123.875 16.7109C123.438 17.1797 123.07 17.4766 122.773 17.6016C122.695 17.6797 122.625 17.6562 122.562 17.5312V17.3438C123.141 16.5469 123.711 15.5391 124.273 14.3203C124.414 14.0078 124.547 13.7344 124.672 13.5C124.797 13.2656 124.906 13.0938 125 12.9844C125.266 12.8125 125.547 12.7969 125.844 12.9375ZM126.477 20.7656C126.82 20.8125 127.039 20.9531 127.133 21.1875C127.164 21.4375 127.133 21.6406 127.039 21.7969C126.977 21.8906 126.875 21.9453 126.734 21.9609C126.375 21.9922 125.969 22.0391 125.516 22.1016C124.656 22.2734 123.477 22.5703 121.977 22.9922C121.93 23.9141 121.867 24.8281 121.789 25.7344C121.945 25.75 123.344 25.4453 125.984 24.8203C126.406 24.8516 126.648 25.0547 126.711 25.4297C126.664 25.8203 126.492 26.0547 126.195 26.1328C126.008 26.1328 125.797 26.1406 125.562 26.1562C124.688 26.2969 123.461 26.5625 121.883 26.9531C121.477 27.0938 121.211 27.1562 121.086 27.1406C120.805 27.0781 120.617 26.8828 120.523 26.5547C120.539 26.3203 120.586 26.0938 120.664 25.875C120.742 24.9688 120.789 24.1094 120.805 23.2969C120.508 23.3438 120.25 23.3672 120.031 23.3672C119.703 23.3203 119.531 23.1641 119.516 22.8984C119.469 22.6797 119.492 22.5078 119.586 22.3828C119.633 22.2734 119.969 22.1797 120.594 22.1016C121.031 22.0234 121.711 21.8672 122.633 21.6328C123.742 21.3828 124.789 21.1406 125.773 20.9062C125.992 20.8281 126.227 20.7812 126.477 20.7656ZM121.133 13.9688C121.211 14 121.266 14.0469 121.297 14.1094C121.5 15.0938 121.883 15.7812 122.445 16.1719C122.461 16.1875 122.484 16.2031 122.516 16.2188C122.625 16.4531 122.602 16.6875 122.445 16.9219C122.242 17.1406 122.016 17.1875 121.766 17.0625C121.484 16.8906 121.234 16.6484 121.016 16.3359C120.625 15.8047 120.383 15.1719 120.289 14.4375C120.305 14.2188 120.391 14.0469 120.547 13.9219C120.734 13.7031 120.93 13.7188 121.133 13.9688ZM113.422 10.0781C113.641 10.2031 113.789 10.3906 113.867 10.6406C113.898 10.7969 113.867 10.9375 113.773 11.0625C113.383 11.625 112.484 13.3438 111.078 16.2188C111 16.3438 111.047 16.3984 111.219 16.3828C112.172 16.0078 113.242 15.5547 114.43 15.0234C114.539 14.9453 114.633 14.8594 114.711 14.7656C114.773 14.6875 114.844 14.6406 114.922 14.625C115.25 14.5938 115.492 14.7109 115.648 14.9766C115.742 15.1328 115.758 15.3672 115.695 15.6797C115.633 15.8047 115.555 15.9062 115.461 15.9844C115.195 16.1719 114.945 16.375 114.711 16.5938C114.336 16.8594 113.141 18.5 111.125 21.5156C111.078 21.6562 111.117 21.7031 111.242 21.6562C112.289 21.1719 113.203 20.6953 113.984 20.2266C114.234 20.1172 114.445 19.9375 114.617 19.6875C114.82 19.5 115.078 19.4609 115.391 19.5703C115.5 19.7109 115.672 19.9844 115.906 20.3906C116.109 20.75 116.375 21.0703 116.703 21.3516C116.812 21.4453 116.898 21.6094 116.961 21.8438C116.992 22.0156 117 22.1719 116.984 22.3125C116.938 22.4531 116.836 22.5469 116.68 22.5938C116.539 22.6406 116.383 22.625 116.211 22.5469C115.836 22.2812 115.484 21.9531 115.156 21.5625C115.094 21.4219 115.031 21.2891 114.969 21.1641C114.875 21.0391 114.773 21.0156 114.664 21.0938C114.383 21.3594 113.367 21.8438 111.617 22.5469C110.461 23.0625 109.812 23.375 109.672 23.4844C109.578 23.5312 109.484 23.5781 109.391 23.625H109.133C109.008 23.5781 108.875 23.4297 108.734 23.1797V22.6875C108.797 22.5938 108.898 22.5 109.039 22.4062C109.398 22.0469 110.664 20.2656 112.836 17.0625C112.914 16.8594 112.844 16.8047 112.625 16.8984C112.531 16.9453 111.812 17.2734 110.469 17.8828C109.969 18.1016 109.586 18.1953 109.32 18.1641C109.133 18.1016 109 18 108.922 17.8594C108.828 17.7188 108.805 17.5469 108.852 17.3438C108.867 17.2344 109.234 16.7422 109.953 15.8672L112.438 10.9453C112.562 10.7109 112.656 10.4844 112.719 10.2656C112.891 10.0312 113.125 9.96875 113.422 10.0781ZM112.906 25.2656C113.312 25.7656 113.609 26.4297 113.797 27.2578C113.828 27.3672 113.852 27.5 113.867 27.6562C113.883 27.9531 113.789 28.125 113.586 28.1719C113.43 28.2031 113.289 28.1562 113.164 28.0312C113.117 28 113.055 27.9141 112.977 27.7734C112.602 27.0391 112.242 26.4922 111.898 26.1328C111.523 25.7266 111.508 25.3906 111.852 25.125C111.992 24.9688 112.18 24.9062 112.414 24.9375C112.523 24.9531 112.688 25.0625 112.906 25.2656ZM115.344 24.0703C115.734 24.5234 116.039 25.1328 116.258 25.8984C116.289 25.9922 116.312 26.1094 116.328 26.25C116.344 26.5469 116.25 26.7188 116.047 26.7656C115.891 26.7969 115.75 26.75 115.625 26.625C115.578 26.5938 115.516 26.5156 115.438 26.3906C115.062 25.75 114.695 25.2656 114.336 24.9375C113.961 24.5312 113.945 24.1953 114.289 23.9297C114.414 23.7734 114.602 23.7109 114.852 23.7422C114.961 23.7578 115.125 23.8672 115.344 24.0703ZM110.305 29.0625C109.945 28.4062 109.578 27.7812 109.203 27.1875C108.984 26.8281 108.977 26.5391 109.18 26.3203C109.336 26.1484 109.531 26.0938 109.766 26.1562C110.297 26.5156 110.898 27.5078 111.57 29.1328C111.742 29.4453 111.648 29.7578 111.289 30.0703C111.07 30.2266 110.867 30.2656 110.68 30.1875C110.586 30.125 110.516 29.9453 110.469 29.6484C110.422 29.3203 110.367 29.125 110.305 29.0625ZM135.031 19.2188C135.141 19.1875 135.234 19.1641 135.312 19.1484C135.547 19.0703 135.922 18.9062 136.438 18.6562C136.875 18.4688 137.289 18.2812 137.68 18.0938V18C138.164 17.1719 138.734 15.8438 139.391 14.0156C138.016 14.2031 136.688 14.6172 135.406 15.2578C135.156 15.3984 134.945 15.4844 134.773 15.5156C134.68 15.5156 134.602 15.4922 134.539 15.4453C134.648 16.7891 134.812 18.0469 135.031 19.2188ZM139.086 17.9766C139.164 18.0391 139.219 18.1094 139.25 18.1875C139.297 18.4688 139.258 18.6953 139.133 18.8672C139.102 18.9609 139.047 19.0156 138.969 19.0312C138.766 19.0625 138.539 19.1094 138.289 19.1719C138.07 19.2344 137.828 19.3281 137.562 19.4531C137.641 19.5938 137.68 19.75 137.68 19.9219C137.648 20.7188 137.594 21.6094 137.516 22.5938C137.672 22.5469 137.859 22.4844 138.078 22.4062C138.578 22.2344 139.047 22.0781 139.484 21.9375C139.578 21.9062 139.68 21.8828 139.789 21.8672C140.164 21.9141 140.406 22.0625 140.516 22.3125C140.562 22.5938 140.523 22.8203 140.398 22.9922C140.367 23.0234 140.32 23.0469 140.258 23.0625C140.086 23.0938 139.898 23.125 139.695 23.1562C139.227 23.25 138.531 23.4375 137.609 23.7188C137.516 23.75 137.438 23.7656 137.375 23.7656C137.328 24.3125 137.273 24.8672 137.211 25.4297C137.195 25.7734 137.211 26.1016 137.258 26.4141C137.258 26.4766 137.266 26.5391 137.281 26.6016C137.703 26.4141 138.125 26.2109 138.547 25.9922C138.797 25.6328 139.094 25.5234 139.438 25.6641C139.828 26.0859 139.727 26.5625 139.133 27.0938C137.539 27.875 135.961 28.6094 134.398 29.2969C133.883 29.4844 133.391 29.6484 132.922 29.7891C132.672 29.8828 132.453 29.9141 132.266 29.8828C132.078 29.8672 131.906 29.7656 131.75 29.5781C131.594 29.1875 131.602 28.9219 131.773 28.7812C132.195 28.6719 132.648 28.5234 133.133 28.3359C132.914 27.9297 132.789 27.3281 132.758 26.5312L132.664 23.8828C132.711 23.5859 132.891 23.4297 133.203 23.4141C133.578 23.4141 133.812 23.6094 133.906 24L133.953 26.5781C133.969 26.8906 134.008 27.1406 134.07 27.3281C134.133 27.5156 134.203 27.6797 134.281 27.8203C134.297 27.8516 134.297 27.875 134.281 27.8906C134.828 27.6719 135.398 27.4297 135.992 27.1641C135.977 27.1172 135.961 27.0781 135.945 27.0469C135.898 26.8281 136.031 25.4922 136.344 23.0391C136.484 21.2109 136.531 20.1719 136.484 19.9219C136.25 20.0312 136 20.1562 135.734 20.2969C135.531 20.3594 135.352 20.3906 135.195 20.3906C135.164 20.5625 135.055 20.7188 134.867 20.8594C134.492 20.9688 134.227 20.8672 134.07 20.5547C133.898 20.0703 133.68 18.7734 133.414 16.6641C133.336 15.7266 133.25 14.8516 133.156 14.0391C133.094 13.5547 133.078 13.2344 133.109 13.0781C133.203 12.7344 133.438 12.6094 133.812 12.7031C134.047 12.7969 134.227 12.9453 134.352 13.1484L134.398 13.8984C134.414 14.0547 134.422 14.2109 134.422 14.3672C134.484 14.3359 134.523 14.3125 134.539 14.2969C135.367 13.7969 137.172 13.2812 139.953 12.75C140.391 12.7031 140.742 12.7891 141.008 13.0078C141.211 13.2109 141.25 13.4453 141.125 13.7109C140.484 14.8672 139.805 16.2891 139.086 17.9766ZM151.062 28.0781C151.406 28.1406 151.641 28.3281 151.766 28.6406C151.828 29.1094 151.641 29.4062 151.203 29.5312C150.656 29.3438 149.922 29.2812 149 29.3438C148.312 29.3906 147.539 29.4844 146.68 29.625C146.133 29.7188 145.797 29.5703 145.672 29.1797C145.672 28.9141 145.805 28.6797 146.07 28.4766C146.227 28.3359 146.938 28.2109 148.203 28.1016C149.016 26.7266 149.633 25.5781 150.055 24.6562C147.195 24.5469 145.031 24.9141 143.562 25.7578C143.531 25.7734 143.5 25.7812 143.469 25.7812C143.766 26.6562 144.148 27.6172 144.617 28.6641C144.695 28.8203 144.766 28.9531 144.828 29.0625C144.938 29.6719 144.781 30.0078 144.359 30.0703C143.953 30.1953 143.672 29.9531 143.516 29.3438C143.375 28.9688 143.25 28.6328 143.141 28.3359C142.797 27.4922 142.367 26.3203 141.852 24.8203C141.383 25.4453 141.055 25.8047 140.867 25.8984C140.555 26.1016 140.258 26.1406 139.977 26.0156C139.727 25.8281 139.641 25.5781 139.719 25.2656C139.734 25.2188 139.789 25.1719 139.883 25.125C140.023 25.1406 140.148 25.0938 140.258 24.9844C140.555 24.8906 141.719 23.3672 143.75 20.4141C144.078 19.9453 144.406 19.4922 144.734 19.0547C144.375 18.8828 144.031 18.7188 143.703 18.5625C143.281 18.3906 142.875 18.2031 142.484 18C142.234 17.7344 142.203 17.4609 142.391 17.1797C142.594 16.9297 142.883 16.8594 143.258 16.9688C143.57 17.0781 144.016 17.2812 144.594 17.5781C144.891 17.7344 145.18 17.8828 145.461 18.0234C146.43 16.6797 147.383 15.3672 148.32 14.0859C146.914 14.2734 145.281 14.8672 143.422 15.8672C143.281 15.9141 143.156 15.9141 143.047 15.8672L142.602 16.4531C142.336 16.5469 142.109 16.5 141.922 16.3125C141.688 15.9531 141.734 15.6562 142.062 15.4219C142.984 14.2188 143.891 12.6172 144.781 10.6172C144.891 10.3516 144.977 10.1094 145.039 9.89062C145.086 9.76562 145.125 9.63281 145.156 9.49219C145.438 9.32031 145.742 9.3125 146.07 9.46875C146.305 9.76562 146.32 10.1484 146.117 10.6172L145.484 11.8125C145.078 12.6562 144.656 13.4297 144.219 14.1328C145.75 13.4922 147.352 13.0469 149.023 12.7969C149.461 12.7812 149.766 12.8672 149.938 13.0547C150.141 13.2422 150.188 13.4922 150.078 13.8047C149.938 14.1484 149.453 14.8047 148.625 15.7734C147.922 16.6797 147.203 17.6172 146.469 18.5859C148.125 19.4766 150.023 20.5547 152.164 21.8203L153.008 22.2422C153.398 22.3984 153.719 22.5156 153.969 22.5938C154.234 22.875 154.305 23.2344 154.18 23.6719C154.008 23.9375 153.789 24.0391 153.523 23.9766C153.117 23.8516 152.609 23.5781 152 23.1562C149.938 21.8438 147.852 20.6484 145.742 19.5703C144.633 21.0391 143.5 22.5547 142.344 24.1172C142.547 24.1328 142.773 24.1953 143.023 24.3047C143.086 24.3359 143.117 24.3906 143.117 24.4688C143.133 24.5312 143.141 24.5781 143.141 24.6094C144.703 23.75 147.258 23.375 150.805 23.4844C151.18 23.5 151.461 23.6328 151.648 23.8828C151.727 24.0547 151.719 24.2734 151.625 24.5391C151.016 25.6484 150.312 26.8359 149.516 28.1016C149.984 28.1172 150.5 28.1094 151.062 28.0781Z" fill="white"/>
</svg>
